<?xml version="1.0" encoding="UTF-8" standalone="no"?>
<svg
   xmlns:dc="http://purl.org/dc/elements/1.1/"
   xmlns:cc="http://creativecommons.org/ns#"
   xmlns:rdf="http://www.w3.org/1999/02/22-rdf-syntax-ns#"
   xmlns:svg="http://www.w3.org/2000/svg"
   xmlns="http://www.w3.org/2000/svg"
   xmlns:sodipodi="http://sodipodi.sourceforge.net/DTD/sodipodi-0.dtd"
   xmlns:inkscape="http://www.inkscape.org/namespaces/inkscape"
   width="750"
   height="750"
   viewBox="0 0 750 750"
   fill="none"
   version="1.1"
   id="svg27"
   sodipodi:docname="Linda_logosvg.svg"
   inkscape:version="1.0.2-2 (e86c870879, 2021-01-15)">
  <metadata
     id="metadata31">
    <rdf:RDF>
      <cc:Work
         rdf:about="">
        <dc:format>image/svg+xml</dc:format>
        <dc:type
           rdf:resource="http://purl.org/dc/dcmitype/StillImage" />
        <dc:title></dc:title>
      </cc:Work>
    </rdf:RDF>
  </metadata>
  <sodipodi:namedview
     pagecolor="#ffffff"
     bordercolor="#666666"
     borderopacity="1"
     objecttolerance="10"
     gridtolerance="10"
     guidetolerance="10"
     inkscape:pageopacity="0"
     inkscape:pageshadow="2"
     inkscape:window-width="1920"
     inkscape:window-height="1001"
     id="namedview29"
     showgrid="false"
     inkscape:zoom="1.1066667"
     inkscape:cx="319.12025"
     inkscape:cy="373.40479"
     inkscape:window-x="-9"
     inkscape:window-y="-9"
     inkscape:window-maximized="1"
     inkscape:current-layer="svg27" />
  <circle
     cx="375.5"
     cy="374.5"
     fill="#bf98ff"
     id="circle2"
     r="375.5"
     style="fill:#c83771" />
  <g
     filter="url(#filter0_i)"
     id="g6">
    <path
       fill-rule="evenodd"
       clip-rule="evenodd"
       d="M278.594 109.789C265.366 98.3355 248.722 88.7218 232 85.5001C172.835 74.1015 124.553 97.1978 97.4996 130C70.7092 162.483 67.4996 184.5 65.9996 217.5C65.7499 222.994 67.4996 242 67.4996 242C66.1657 219.402 83.4996 173.5 108.479 148.682C136.844 120.5 170.988 102.401 226 113C249.177 119.56 258.586 130.849 268.944 143.278C270.428 145.06 271.933 146.865 273.5 148.682C283.543 166.464 288.234 181.292 287.5 205C287.483 205.532 287.464 206.065 287.442 206.598C275.394 193.013 262.801 182.833 226.784 181C200.07 182.51 181.67 191.699 168.219 212.711C163.824 219.578 160 231.839 160 231.839C168.036 218.982 189.693 199.624 225.243 199.624C256.164 199.624 274.704 234.267 280.539 250.369C278.418 258.768 275.987 266.895 273.5 274.5C269.601 286.42 263.051 301.056 256.744 313.227L257.5 311.5C252.5 303.5 246.096 299.723 236.5 298C232.079 297.206 225 298 225 298C240.405 301.259 244.896 321.558 246.392 331.185C245.916 331.892 245.457 332.549 245.019 333.151C240.932 335.421 236.9 338.047 233.007 341.074C226.235 346.34 218.578 348.528 206.458 351.992L206.096 352.095C193.917 355.576 178.211 360.173 156.861 370.594C141.626 378.031 134.437 384.812 126.149 392.629C123.4 395.222 120.53 397.929 117.205 400.812C103.716 412.509 81.3843 428.57 26.8533 454.765C25.1781 455.57 23.7262 456.853 22.8456 458.659C21.9914 460.411 21.8867 462.218 22.0865 463.76C22.4646 466.678 24.0353 469.509 25.7049 471.836C28.8677 476.244 33.8098 480.782 38.7224 483.884C44.4769 494.411 61.5531 511.528 94.2834 509.888C114.984 508.851 136.647 502.781 156.304 496.572C160.67 495.192 164.918 493.814 169.033 492.479L169.036 492.478C183.768 487.697 196.787 483.472 207.359 481.77C219.749 479.774 228.694 483.365 234.565 488.79C240.591 494.358 243.575 502.035 243.575 508.391C243.575 517.872 239.536 528.144 233.226 540.78C231.406 544.423 229.399 548.261 227.292 552.29L227.29 552.294C222.278 561.876 216.696 572.547 211.715 584.289C197.348 618.155 189.557 647.68 199.5 686.5C203.12 700.632 211.715 709.5 211.715 709.5C195.072 650.404 207.28 620.364 220.921 588.21C225.738 576.853 230.999 566.798 235.937 557.36L235.937 557.36C238.099 553.229 240.198 549.216 242.171 545.264C248.49 532.61 253.578 520.457 253.578 508.391C253.578 499.206 249.403 488.868 241.346 481.423C233.134 473.834 221.073 469.411 205.771 471.875C194.36 473.712 180.31 478.275 165.442 483.105L165.438 483.106L165.416 483.113L165.404 483.117C161.415 484.413 157.368 485.727 153.297 487.013C133.694 493.206 113.095 498.911 93.7839 499.879C63.9737 501.372 50.4073 485.203 47.0269 478.159L46.3591 476.767L45.0253 475.993C40.8455 473.569 36.3881 469.556 33.8267 465.986C32.9902 464.82 32.5096 463.913 32.2531 463.285C86.48 437.166 109.452 420.789 123.751 408.39C127.591 405.061 130.711 402.12 133.57 399.425C141.534 391.919 147.465 386.329 161.242 379.604C181.811 369.564 196.864 365.156 208.84 361.733L209.3 361.601L210.208 361.342L210.224 361.338C221.434 358.141 230.814 355.465 239.14 348.992C254.943 336.702 273.56 331.693 287.701 330.388C293.468 329.855 298.329 329.955 301.806 330.363C289.101 347.285 288.236 372.139 300.638 388.189L300.815 388.418L301.017 388.625C302.971 390.626 305.045 392.724 307.214 394.918L307.216 394.92C330.446 418.417 364.46 452.823 375.786 494.67C381.774 516.793 376.782 541.626 367.595 564.133C366.273 567.371 364.961 570.634 363.655 573.881L363.654 573.884L363.653 573.884C357.581 588.982 351.65 603.73 345.604 613.9L344 616L345.02 614.868C343.551 617.263 342.075 619.381 340.588 621.161C340.588 621.161 354.254 605.693 361.594 596.607C361.951 596.165 362.302 595.734 362.646 595.313L444.5 504.5L459.701 485.18C482.205 495.868 523.723 503.649 566.583 494.707C611.404 485.356 657.027 463.272 672.5 413.5C673.697 409.649 674.914 404.181 675.549 401.181C675.7 401.121 675.85 401.06 676 401C697.07 392.506 709.5 380.5 709.5 380.5L718.946 372.5L728 363C727.461 363.325 726.447 363.998 725.128 364.872L725.125 364.874L725.124 364.874C722.02 366.932 717.234 370.105 713 372.5C696.604 381.775 687.064 386.403 669 391C642.307 397.793 620.409 401.994 598.5 393C565.241 379.346 543.208 376.665 526.537 377.582C509.795 378.504 498 386.5 498 386.5C498 386.5 492.578 390.173 489.5 393C486.036 396.181 481.5 402 481.5 402C494.956 393.886 506.699 390.105 517.872 388.475L454.56 471.323C431.138 459.278 414.464 451.182 402.035 445.893C466.316 388.454 502.382 323.199 513.172 294.094C523.601 292.592 535.013 288.581 543.476 283.301C548.116 280.407 552.301 276.866 554.791 272.746C557.421 268.394 558.23 263.155 555.358 258.049C553.163 254.148 549.103 252.383 544.992 252.163C540.91 251.946 536.358 253.166 531.827 255.592C523.275 260.171 514.029 269.426 506.451 284.347C503.345 284.067 499.477 283.412 495.028 282.462C489.056 281.186 482.351 279.45 475.556 277.611C472.845 276.878 470.104 276.122 467.386 275.374C459.975 273.332 452.738 271.338 446.778 269.963C449.442 263.148 449.498 262.524 449.968 257.344L450 257C450.5 251.5 449.5 247 449.5 247C448.5 252.5 443.5 260 436.242 268.393C423.806 268.134 416.561 270.719 412.862 275.294C410.827 277.81 410.262 280.483 410.234 282.502C410.221 283.494 410.335 284.336 410.46 284.955C410.523 285.267 410.59 285.53 410.649 285.737C410.679 285.841 410.707 285.931 410.732 286.007C410.744 286.046 410.756 286.08 410.766 286.111L410.782 286.155L410.789 286.175L410.792 286.185C410.794 286.189 410.795 286.194 415.5 284.5L410.795 286.194L410.909 286.509L411.064 286.807L415.5 284.5C411.064 286.807 411.066 286.811 411.068 286.815L411.072 286.823L411.082 286.841L411.103 286.881C411.112 286.898 411.122 286.917 411.133 286.937L411.154 286.974C411.193 287.043 411.24 287.125 411.295 287.217C411.406 287.401 411.554 287.632 411.741 287.894C412.11 288.412 412.655 289.084 413.396 289.766C414.896 291.146 417.301 292.64 420.625 292.806C426.665 293.108 433.355 289.027 441.152 278.969C447.119 280.169 455.329 282.429 464.327 284.906C467.137 285.679 470.024 286.474 472.943 287.264C479.774 289.112 486.693 290.907 492.94 292.241C496.276 292.954 499.515 293.556 502.506 293.959C490.679 323.481 454.923 386.213 392.369 441.095L391.475 441.749C378.911 437.533 368.087 437.291 361 438L367.5 446.5C371.393 446.5 375.101 446.84 381.705 448.898L372.047 455.965L377.952 464.035L393.038 452.997C405.203 457.851 422.389 466.05 448.391 479.396L380.178 568.658C380.802 567.252 381.441 565.748 382.1 564.133C391.659 540.715 392.256 517.228 385.441 492.047C373.375 447.468 337.417 411.171 314.398 387.935L314.395 387.932L314.381 387.917C312.26 385.777 310.25 383.747 308.378 381.832C298.223 368.42 299.838 345.859 313.13 332.541C314.185 331.484 315.392 329.515 314.827 326.986C314.348 324.842 312.845 323.614 312.027 323.057C310.312 321.892 307.976 321.245 305.817 320.838C301.193 319.965 294.505 319.695 286.783 320.408C284.117 320.654 281.298 321.02 278.369 321.528C281.223 317.847 284.174 313.24 287.099 307.929C313.189 292.043 364.252 256.91 346.5 184.5C343.803 173.5 334.5 163.599 334.5 163.599C346.855 218.155 326.068 245.712 306.318 260.155C311.521 243.422 314.859 229.172 315.5 208.5C316.265 183.77 311.769 155.453 300.5 135.5C299.545 133.81 298.471 132.092 297.287 130.357C302.55 106.532 302.492 58.6268 259.5 36.5C253.017 33.1638 242 30 242 30C283.868 59.7733 283.24 92.1197 278.594 109.789ZM466.062 477.095C486.971 486.321 525.026 493.162 564.541 484.918C606.002 476.268 648.513 457.905 674.878 401.446C650.448 411.041 618.304 415.472 593.101 405.125C566.583 394.239 549.403 389.05 536.327 387.794L466.062 477.095ZM420.638 281.581C421.141 280.959 422.9 279.489 427.993 278.776C424.028 282.539 421.782 282.852 421.124 282.819C420.742 282.8 420.475 282.667 420.243 282.474C420.27 282.224 420.361 281.923 420.638 281.581ZM538.183 274.817C532.771 278.193 525.76 281.033 518.759 282.798C524.765 273.013 531.226 267.257 536.547 264.408C539.953 262.584 542.683 262.054 544.46 262.149C546.209 262.242 546.586 262.852 546.642 262.951C547.376 264.257 547.426 265.599 546.232 267.574C544.898 269.782 542.196 272.314 538.183 274.817ZM317.735 470.422C316.471 473.188 316.679 474.885 317.319 475.981C317.926 477.021 319.355 478.083 322.888 478.281C326.379 478.478 330.897 477.725 335.814 476.268C340.665 474.831 345.584 472.806 349.761 470.721C354.021 468.595 358.976 465.833 360.5 464.5L365.292 472.763C362.816 474.93 358.764 477.405 354.226 479.669C349.605 481.975 344.142 484.231 338.654 485.857C333.232 487.463 327.456 488.554 322.327 488.266C317.237 487.98 311.719 486.229 308.681 481.019C305.82 476.115 306.591 470.75 308.639 466.266C310.678 461.804 314.231 457.553 318.28 453.909C326.256 446.73 338.654 441 345.5 439.5L350.5 448C344.03 448.404 331.993 455.02 324.969 461.341C321.518 464.447 319.009 467.633 317.735 470.422Z"
       fill="#56E0DC"
       id="path4" />
  </g>
  <defs
     id="defs25">
    <filter
       id="filter0_i"
       x="22"
       y="30"
       width="706"
       height="683.5"
       filterUnits="userSpaceOnUse"
       color-interpolation-filters="sRGB">
      <feFlood
         flood-opacity="0"
         result="BackgroundImageFix"
         id="feFlood8" />
      <feBlend
         mode="normal"
         in="SourceGraphic"
         in2="BackgroundImageFix"
         result="shape"
         id="feBlend10" />
      <feColorMatrix
         in="SourceAlpha"
         type="matrix"
         values="0 0 0 0 0 0 0 0 0 0 0 0 0 0 0 0 0 0 127 0"
         result="hardAlpha"
         id="feColorMatrix12" />
      <feOffset
         dy="4"
         id="feOffset14" />
      <feGaussianBlur
         stdDeviation="2"
         id="feGaussianBlur16" />
      <feComposite
         in2="hardAlpha"
         operator="arithmetic"
         k2="-1"
         k3="1"
         id="feComposite18" />
      <feColorMatrix
         type="matrix"
         values="0 0 0 0 0 0 0 0 0 0 0 0 0 0 0 0 0 0 0.25 0"
         id="feColorMatrix20" />
      <feBlend
         mode="normal"
         in2="shape"
         result="effect1_innerShadow"
         id="feBlend22" />
    </filter>
  </defs>
</svg>
